<!--?xml version="1.0" standalone="no"?-->
<svg id="sw-js-blob-svg" viewBox="0 0 100 100" xmlns="http://www.w3.org/2000/svg" version="1.1">
    <defs>
        <linearGradient id="sw-gradient" x1="0" x2="1" y1="1" y2="0">
            <stop id="stop1" stop-color="rgba(252, 184, 30, 1)" offset="0%"></stop>
            <stop id="stop2" stop-color="rgba(151, 115, 161, 1)" offset="100%"></stop>
        </linearGradient>
    </defs>
    <path fill="url(#sw-gradient)"
        d="M26.8,-27.2C35,-25.1,42,-16.9,40.7,-9.4C39.4,-1.9,29.7,4.8,24.2,13.7C18.7,22.6,17.5,33.6,12.3,36.9C7.1,40.2,-2.2,35.7,-11.6,32.2C-21.1,28.6,-30.9,26,-33.3,20.1C-35.7,14.1,-30.8,4.8,-26.3,-1.8C-21.8,-8.5,-17.7,-12.4,-13.4,-15.2C-9.1,-18,-4.5,-19.8,2.4,-22.6C9.3,-25.5,18.6,-29.4,26.8,-27.2Z"
        width="100%" height="100%" transform="translate(50 50)" stroke-width="0"
        style="transition: 0.3s;"></path>
</svg>