<!--?xml version="1.0" standalone="no"?-->
<svg id="sw-js-blob-svg" viewBox="0 0 100 100" xmlns="http://www.w3.org/2000/svg" version="1.1">
    <defs>
        <linearGradient id="sw-gradient" x1="0" x2="1" y1="1" y2="0">
            <stop id="stop1" stop-color="rgba(255, 200, 195, 1)" offset="0%"></stop>
            <stop id="stop2" stop-color="rgba(151, 115, 161, 1)" offset="100%"></stop>
        </linearGradient>
    </defs>
    <path fill="url(#sw-gradient)"
        d="M23.4,-25.6C30.7,-21.7,37.4,-14.7,37.3,-7.7C37.2,-0.6,30.5,6.5,24.9,12.8C19.4,19.1,15.1,24.5,9.7,26.2C4.3,27.9,-2.2,26,-9.3,24C-16.3,22.1,-23.9,20.1,-28.8,15C-33.7,9.9,-35.8,1.6,-33.3,-4.7C-30.8,-11,-23.7,-15.4,-17.4,-19.5C-11,-23.5,-5.5,-27.3,1.3,-28.8C8,-30.3,16.1,-29.5,23.4,-25.6Z"
        width="100%" height="100%" transform="translate(50 50)" stroke-width="0"
        style="transition: 0.3s;"></path>
</svg>