<!--?xml version="1.0" standalone="no"?-->
<svg id="sw-js-blob-svg" viewBox="0 0 100 100" xmlns="http://www.w3.org/2000/svg" version="1.1">
    <defs>
        <linearGradient id="sw-gradient" x1="0" x2="1" y1="1" y2="0">
            <stop id="stop1" stop-color="rgba(252, 184, 30, 1)" offset="0%"></stop>
            <stop id="stop2" stop-color="rgba(255, 200, 195, 1)" offset="100%"></stop>
        </linearGradient>
    </defs>
    <path fill="url(#sw-gradient)"
        d="M21.8,-29.8C26.1,-22.4,25.9,-13.5,25.7,-5.9C25.4,1.7,25.1,8,23.3,15.8C21.6,23.6,18.5,32.8,12.7,35C6.9,37.1,-1.5,32.1,-11.1,29.2C-20.7,26.2,-31.5,25.3,-36.5,19.7C-41.4,14,-40.4,3.5,-36.9,-4.8C-33.4,-13.1,-27.3,-19.2,-20.7,-26.1C-14.1,-33.1,-7.1,-40.9,0.9,-41.9C8.8,-42.9,17.5,-37.1,21.8,-29.8Z"
        width="100%" height="100%" transform="translate(50 50)" stroke-width="0"
        style="transition: 0.3s;"></path>
</svg>